<?xml version="1.0" encoding="utf-8"?>
<!-- Generator: Adobe Illustrator 26.3.1, SVG Export Plug-In . SVG Version: 6.00 Build 0)  -->
<svg version="1.1" id="Layer_1" xmlns="http://www.w3.org/2000/svg" xmlns:xlink="http://www.w3.org/1999/xlink" x="0px" y="0px"
	 viewBox="0 0 283.16 283.16" style="enable-background:new 0 0 283.16 283.16;" xml:space="preserve">
<g>
	<g>
		<g>
			<path d="M201.85,44.67c-0.57-0.27-1.09,0.45-0.65,0.91c11.5,12,18.56,28.27,18.56,46.2c0,36.88-29.9,66.78-66.78,66.78
				c-12.04,0-23.33-3.18-33.08-8.76c-0.54-0.31-1.12,0.36-0.72,0.85c11.78,14.54,29.36,24.19,49.22,25.44
				c41.43,2.6,75.88-31.9,73.22-73.33C239.97,76.97,224.15,55.04,201.85,44.67z"/>
			<path d="M34.81,177.87c-0.44,0.87-1.75,0.29-1.41-0.62c19-50.25,35.44-93.07,50.76-110.36c32.49-36.66,103.94-24.82,85.01,47.93
				c-0.14,0.55-1,0.38-1-0.2c0.02-10-0.98-44.61-34.27-48.65C86.79,60.26,52.26,143.65,34.81,177.87z"/>
			<path d="M54.81,159.78c-0.4,0.87,0.84,1.54,1.35,0.73c13.49-21.47,38.75-54.61,58.58-64.95c23.54-12.28,39.91,0.26,45.55,5.82
				c0.57,0.57,1.52-0.03,1.27-0.79c-2.82-8.51-13.1-30.75-41.65-22.44C91.22,86.49,65.38,136.65,54.81,159.78z"/>
			<path d="M165.99,145.31c0.74-0.37,0.51-1.49-0.32-1.52c-6.06-0.27-19.64-1.86-27.86-10.56c-10.82-11.44-1.02-32.11-19.84-25.14
				c-16.42,6.07-47.52,48.32-48.82,53.93c-1.3,5.61,38.55-41.16,47.73-32.67C124.13,136.07,141.84,157.19,165.99,145.31z"/>
			<path d="M114.56,134.51c0.72-0.29,1.33,0.62,0.78,1.17c-7.81,7.88-24.13,27.39-9.4,35.17c3.05,1.61,13.67,5.33,7.57,5.43
				c-9.59,0.16-30.49,1.4-21.57-19.04C96.77,146.18,107.55,137.33,114.56,134.51z"/>
		</g>
		<path d="M197.78,41.97c-4.21-8.55-1.35-9.38-3.91-17.08c-2.3-6.89-10.62-9.53-13.73-10.29c-0.36-0.09-0.61,0.34-0.36,0.61
			c6.18,6.69,7,12.17,4.35,15.47c-4.26,5.32-11.75,3.32-17.16,0.57c-0.32-0.16-0.66,0.18-0.5,0.5c1.44,2.79,5.99,10.36,13.28,10.96
			c8.12,0.67,8.22-2.32,17.61-0.23C197.67,42.56,197.91,42.25,197.78,41.97z"/>
	</g>
	<g>
		<g>
			<path d="M37.26,234.7h17.17v4.78H31.88v-38.46h5.38V234.7z"/>
			<path d="M66.64,239.48h-5.98l16.68-38.46h4.89l16.51,38.46h-6.08l-3.91-9.45H70.5L66.64,239.48z M72.4,225.3h14.39l-7.17-18.03
				L72.4,225.3z"/>
			<path d="M179.85,240.46c-2.54,0-4.74-0.43-6.63-1.28c-1.88-0.85-3.44-1.98-4.67-3.4c-1.23-1.41-2.15-3.03-2.74-4.86
				c-0.6-1.83-0.9-3.72-0.9-5.68v-24.23h5.38v23.9c0,1.3,0.16,2.6,0.49,3.88c0.33,1.29,0.86,2.44,1.6,3.45
				c0.74,1.01,1.72,1.83,2.93,2.44c1.21,0.62,2.72,0.92,4.54,0.92c1.77,0,3.28-0.31,4.51-0.92c1.23-0.62,2.22-1.43,2.96-2.44
				c0.74-1.01,1.28-2.16,1.6-3.45c0.33-1.29,0.49-2.58,0.49-3.88v-23.9h5.38v24.23c0,1.96-0.3,3.85-0.9,5.68
				c-0.6,1.83-1.51,3.45-2.74,4.86c-1.23,1.41-2.79,2.54-4.67,3.4C184.59,240.03,182.38,240.46,179.85,240.46z"/>
			<path d="M209.29,201.02h13.2c2.46,0,4.92,0.36,7.39,1.09c2.46,0.72,4.69,1.87,6.68,3.42c1.99,1.56,3.6,3.55,4.83,5.98
				c1.23,2.43,1.85,5.34,1.85,8.75c0,3.3-0.62,6.15-1.85,8.56c-1.23,2.41-2.84,4.4-4.83,5.98c-1.99,1.58-4.22,2.75-6.68,3.53
				c-2.46,0.78-4.93,1.17-7.39,1.17h-13.2V201.02z M214.66,234.76h6.74c2.32,0,4.46-0.33,6.44-0.98c1.97-0.65,3.68-1.59,5.11-2.82
				c1.43-1.23,2.54-2.75,3.34-4.56c0.8-1.81,1.2-3.86,1.2-6.14c0-2.39-0.4-4.49-1.2-6.3c-0.8-1.81-1.91-3.32-3.34-4.54
				c-1.43-1.21-3.13-2.14-5.11-2.77c-1.97-0.63-4.12-0.95-6.44-0.95h-6.74V234.76z"/>
		</g>
		<g>
			<path d="M99.13,200.59c6.51,0.12,11.84,2.31,15.95,7.47c-1.37-0.19-2.61-0.41-3.87,0.29c4.14,7.59,6.5,15.69,6.92,24.22
				c2.15-0.14,4.23-0.28,6.38-0.42c0-8.45,0-16.99,0-25.56c-1.56-0.37-3.02,0.09-4.6,0.59c2.67-5.19,5.27-10.26,7.95-15.48
				c2.67,5.19,5.28,10.28,7.85,15.27c-1.45-0.2-2.93-0.41-4.5-0.63c0,8.77,0,17.29,0,25.81c2.07,0.13,4.15,0.26,6.34,0.4
				c0.31-4.08,0.91-8.28,2.07-12.38c1.16-4.09,2.87-7.96,4.85-11.81c-1.18-0.75-2.42-0.47-3.65-0.31c1.67-3.87,9.51-7.58,15.74-7.4
				c-9.5,11.24-13.75,24.32-14.07,38.88c-3.14-0.84-6.24-1.61-9.46-1.66c-0.6-0.01-1.19,0-1.87,0c0,5.13,0,10.19,0,15.29
				c-2.21,0-4.34,0-6.55,0c0-5.06,0-10.12,0-15.25c-3.92-0.26-7.61,0.6-11.36,1.64C112.92,225,108.68,211.92,99.13,200.59z"/>
		</g>
	</g>
	<g>
		<path d="M52.57,269.32h-1.16v-8.28h5.17v1.02h-4.01v2.57h3.76v0.99h-3.76V269.32z"/>
		<path d="M70.91,269.32h-1.16v-8.28h2.66c0.4,0,0.78,0.04,1.13,0.12c0.36,0.08,0.67,0.21,0.94,0.39c0.27,0.18,0.48,0.42,0.64,0.71
			c0.16,0.29,0.23,0.65,0.23,1.07c0,0.61-0.19,1.1-0.56,1.47c-0.37,0.37-0.86,0.61-1.45,0.71l2.32,3.8h-1.4l-2.11-3.69h-1.24V269.32
			z M70.91,264.67h1.33c0.27,0,0.53-0.02,0.76-0.07c0.23-0.05,0.44-0.12,0.61-0.23c0.18-0.11,0.31-0.24,0.42-0.41
			c0.1-0.17,0.15-0.38,0.15-0.63c0-0.25-0.05-0.46-0.15-0.63c-0.1-0.17-0.24-0.3-0.4-0.4c-0.17-0.1-0.36-0.17-0.59-0.22
			c-0.23-0.04-0.46-0.06-0.71-0.06h-1.42V264.67z"/>
		<path d="M89.79,268.29h4.33v1.03h-5.49v-8.28h5.31v1.02h-4.15v2.48h3.91v0.99h-3.91V268.29z"/>
		<path d="M108.53,268.29h4.33v1.03h-5.49v-8.28h5.31v1.02h-4.15v2.48h3.91v0.99h-3.91V268.29z"/>
		<path d="M126.1,261.04h2.84c0.53,0,1.06,0.08,1.59,0.23c0.53,0.16,1.01,0.4,1.44,0.74c0.43,0.34,0.78,0.76,1.04,1.29
			c0.27,0.52,0.4,1.15,0.4,1.88c0,0.71-0.13,1.32-0.4,1.84c-0.27,0.52-0.61,0.95-1.04,1.29c-0.43,0.34-0.91,0.59-1.44,0.76
			c-0.53,0.17-1.06,0.25-1.59,0.25h-2.84V261.04z M127.26,268.31h1.45c0.5,0,0.96-0.07,1.39-0.21c0.43-0.14,0.79-0.34,1.1-0.61
			c0.31-0.27,0.55-0.59,0.72-0.98c0.17-0.39,0.26-0.83,0.26-1.32c0-0.51-0.09-0.97-0.26-1.36c-0.17-0.39-0.41-0.72-0.72-0.98
			c-0.31-0.26-0.67-0.46-1.1-0.6c-0.43-0.14-0.89-0.2-1.39-0.2h-1.45V268.31z"/>
		<path d="M147.86,269.32h-1.16v-8.28h1.16V269.32z"/>
		<path d="M164.32,267.83h0.04l2.49-6.79h1.25l-3.25,8.28h-1.08l-3.23-8.28h1.29L164.32,267.83z"/>
		<path d="M181.94,269.32h-1.16v-8.28h1.16V269.32z"/>
		<path d="M201.49,267.66h0.02v-6.62h1.16v8.28h-1.46l-4.38-6.76h-0.02v6.76h-1.16v-8.28h1.51L201.49,267.66z"/>
		<path d="M222.63,262.75c-0.25-0.27-0.57-0.49-0.95-0.66c-0.39-0.16-0.82-0.25-1.29-0.25c-0.48,0-0.92,0.09-1.31,0.26
			c-0.39,0.18-0.72,0.42-0.99,0.72c-0.27,0.3-0.48,0.66-0.63,1.06c-0.15,0.4-0.22,0.83-0.22,1.28c0,0.46,0.07,0.89,0.22,1.3
			c0.15,0.41,0.36,0.76,0.63,1.06c0.27,0.3,0.61,0.54,1.01,0.71c0.4,0.17,0.84,0.26,1.33,0.26c0.39,0,0.75-0.04,1.08-0.11
			c0.33-0.07,0.61-0.17,0.85-0.3v-2.3h-1.84v-0.98h2.98v4.01c-0.44,0.23-0.91,0.41-1.43,0.54c-0.51,0.12-1.08,0.19-1.68,0.19
			c-0.65,0-1.24-0.11-1.78-0.32c-0.54-0.21-1.01-0.51-1.4-0.9c-0.39-0.39-0.69-0.85-0.91-1.38c-0.22-0.53-0.33-1.12-0.33-1.76
			c0-0.65,0.11-1.24,0.33-1.77c0.22-0.53,0.53-0.99,0.92-1.37c0.39-0.38,0.86-0.67,1.4-0.88s1.12-0.32,1.75-0.32
			c0.66,0,1.25,0.1,1.77,0.29c0.52,0.2,0.95,0.46,1.29,0.78L222.63,262.75z"/>
	</g>
</g>
</svg>
